<?xml version="1.0" standalone="no"?>
<!DOCTYPE svg PUBLIC "-//W3C//DTD SVG 20010904//EN"
 "http://www.w3.org/TR/2001/REC-SVG-20010904/DTD/svg10.dtd">
<svg version="1.0" xmlns="http://www.w3.org/2000/svg"
 width="256.000000pt" height="143.000000pt" viewBox="0 0 256.000000 143.000000"
 preserveAspectRatio="xMidYMid meet">
<metadata>
Created by potrace 1.15, written by Peter Selinger 2001-2017
</metadata>
<g transform="translate(0.000000,143.000000) scale(0.100000,-0.100000)"
fill="#000000" stroke="none">
<path d="M150 1010 l0 -270 60 0 60 0 0 95 0 95 87 0 c133 0 188 34 215 133
22 82 -19 164 -99 198 -37 16 -69 19 -184 19 l-139 0 0 -270z m274 139 c31
-25 34 -61 6 -89 -16 -16 -33 -20 -90 -20 l-70 0 0 65 0 65 64 0 c49 0 69 -5
90 -21z"/>
<path d="M771 1264 c-57 -25 -96 -61 -127 -116 -26 -48 -29 -62 -29 -143 0
-86 2 -92 37 -146 41 -64 73 -89 142 -113 92 -30 193 -13 272 46 49 38 69 68
89 135 19 63 19 104 -2 170 -21 68 -71 127 -134 158 -40 21 -62 25 -131 24
-50 0 -97 -7 -117 -15z m218 -128 c88 -84 52 -256 -61 -286 -102 -28 -188 43
-188 155 0 66 20 112 63 143 27 20 42 23 94 20 52 -3 68 -9 92 -32z"/>
<path d="M1230 1010 l0 -270 65 0 65 0 0 270 0 270 -65 0 -65 0 0 -270z"/>
<path d="M1450 1010 l0 -270 60 0 60 0 0 167 0 166 41 -58 c23 -32 77 -107
121 -167 l80 -108 54 0 54 0 0 270 0 270 -60 0 -60 0 0 -156 0 -156 -114 154
-113 153 -62 3 -61 3 0 -271z"/>
<path d="M1987 1273 c-4 -3 -7 -28 -7 -55 l0 -48 80 0 80 0 0 -215 0 -215 60
0 60 0 0 215 0 215 75 0 75 0 0 55 0 55 -208 0 c-115 0 -212 -3 -215 -7z"/>
</g>
<g transform="translate(0.000000,143.000000) scale(0.100000,-0.100000)"
fill="#159bd4" stroke="none">
<path d="M150 420 l0 -270 60 0 60 0 0 115 0 115 115 0 115 0 0 -115 0 -116
63 3 62 3 0 265 0 265 -62 3 -63 3 0 -101 0 -100 -115 0 -115 0 0 100 0 100
-60 0 -60 0 0 -270z"/>
<path d="M720 508 c0 -200 8 -248 48 -292 82 -88 300 -91 379 -5 46 52 53 89
53 290 l0 189 -60 0 -60 0 0 -172 c0 -154 -2 -177 -20 -205 -26 -44 -54 -56
-115 -51 -94 8 -105 36 -105 265 l0 163 -60 0 -60 0 0 -182z"/>
<path d="M1290 421 l0 -271 160 0 c124 0 169 4 200 16 94 38 120 162 49 234
l-30 30 30 37 c36 43 41 92 15 146 -30 63 -58 71 -251 75 l-173 4 0 -271z
m305 135 c33 -50 -6 -76 -116 -76 l-69 0 0 50 0 50 85 0 c78 0 86 -2 100 -24z
m3 -198 c7 -7 12 -24 12 -39 0 -44 -32 -59 -122 -59 l-78 0 0 55 0 55 88 0
c55 0 92 -4 100 -12z"/>
</g>
</svg>
